<svg width="340" height="140" viewBox="0 0 340 140" xmlns="http://www.w3.org/2000/svg" xmlns:xlink="http://www.w3.org/1999/xlink"><title>logo</title><defs><path id="a" d="M6.844 9H.593V.055h6.25z"/><path id="c" d="M4.5 4.488V.51H.518v3.978H4.5z"/></defs><g fill="none" fill-rule="evenodd"><path d="M187.743 66.743l-6.076 15.306-9.253-22.724 3.435.006c1.712 4.211 3.625 9.116 5.314 13.337.127.316.262.63.513 1.232l6.068-15.066 6.077 15.1c1.98-4.96 3.886-9.739 5.813-14.563h3.42l-9.228 22.683-6.083-15.31M88.198 81.767c-6.28-.009-11.315-5.007-11.386-11.302-.07-6.214 5.115-11.37 11.428-11.364 6.218.005 11.376 5.172 11.334 11.355-.042 6.266-5.125 11.321-11.376 11.311M80.027 70.41c-.002 4.63 3.572 8.223 8.185 8.228 4.562.004 8.195-3.678 8.155-8.269-.037-4.54-3.681-8.159-8.192-8.139a8.133 8.133 0 0 0-8.148 8.18m141.219 11.357c-6.27-.022-11.342-5.08-11.359-11.33-.015-6.292 5.16-11.364 11.563-11.334 6.126.028 11.27 5.256 11.2 11.381-.07 6.281-5.149 11.304-11.404 11.283m8.197-11.26c.084-4.49-3.54-8.217-8.05-8.278a8.129 8.129 0 0 0-8.284 8.04c-.07 4.598 3.426 8.282 7.938 8.365 4.664.086 8.31-3.443 8.396-8.128m23.253 11.261a11.372 11.372 0 0 1-11.377-11.31c-.055-6.268 5.144-11.38 11.541-11.354 6.134.024 11.271 5.226 11.221 11.362-.052 6.27-5.134 11.316-11.385 11.302m-8.163-11.358c0 4.631 3.575 8.223 8.187 8.228 4.562.004 8.195-3.68 8.154-8.27-.039-4.54-3.683-8.159-8.195-8.138a8.133 8.133 0 0 0-8.146 8.18m27.825 11.111V59.31c3.519.166 7.04-.403 10.494.586 5.716 1.636 7.967 7.04 7.329 12.05-.568 4.465-2.905 7.603-7.293 8.995-.943.301-1.95.523-2.935.553-2.486.077-4.976.026-7.595.026zm3.207-3.12c1.372 0 2.647.01 3.922-.003 3.547-.034 6.158-1.945 7.228-5.279 1.097-3.419-.053-7.278-2.705-9.239-2.582-1.912-5.527-1.275-8.445-1.384V78.4z" fill="#B67429"/><path fill="#B67429" d="M67.753 81.494h-3.045v-9.415H54.113v9.39h-3.14V59.38h3.105v9.434h10.554V59.41h3.121zm40.027-22.145h3.106v19.045h8.934v3.065h-12.04zm21.605 22.115V59.377h3.143v18.988h8.893v3.099zm35.78-22.137h-.068v-.004c-.91 0-1.675-.045-2.41.004h-1.016l-.35.574c-.034.041-.078.081-.105.124-.788 1.21-1.49 2.475-2.218 3.724l-3.384 5.598-2.708-4.48c-.583-1.002-1.165-2.004-1.751-3.003-.49-.838-.828-1.414-1.156-1.805l-.465-.769h-3.494l6.4 10.59a43.36 43.36 0 0 1 1.44 2.832v8.772h3.393V72.79c.212-.644.212-.644.508-1.153a708.842 708.842 0 0 1 3.872-6.5l3.512-5.81zM315.35 108.62h-48.466v-1.911h46.554V33.496h-46.554v-1.912h48.465z"/><path fill="#B67429" d="M311.41 111.521h-44.738v-.956h43.782V29.638h-43.563v-.956h44.52zM24 31.585v77.036h48.464v-1.912H25.912V33.497h46.552v-1.912z"/><path fill="#B67429" d="M72.457 111.522H27.939V28.684h44.736v.955H28.894v80.927h43.563zM92.61 105.3h2.682c2.682 0 4.594 1.785 4.594 4.364 0 2.579-1.9 4.363-4.594 4.363H92.61V105.3zm2.592 7.148c1.938 0 2.823-1.154 2.823-2.784s-.885-2.785-2.823-2.785h-.795v5.569h.795zm15.871 1.578h1.797V105.3h-1.797z"/><g transform="translate(123 105.142)"><mask id="b" fill="#fff"><use xlink:href="#a"/></mask><path d="M.593 7.165l1.464-.848c.384.63.885 1.092 1.77 1.092.745 0 1.22-.373 1.22-.886 0-.616-.488-.834-1.31-1.193l-.45-.192C1.993 4.585 1.133 3.893 1.133 2.43 1.133 1.082 2.16.056 3.765.056c1.14 0 1.962.398 2.553 1.437l-1.4.9c-.307-.553-.64-.77-1.153-.77-.527 0-.86.333-.86.77 0 .537.333.756 1.103 1.09l.449.192c1.528.655 2.388 1.322 2.388 2.824C6.844 8.115 5.573 9 3.866 9 2.196 9 1.119 8.205.593 7.165" fill="#B67429" mask="url(#b)"/></g><path fill="#B67429" d="M140.119 105.3v1.579h2.489v7.147h1.797v-7.147h2.49v-1.58zm17.769 8.726h1.796V105.3h-1.796zm13.277-8.726v8.726h5.75v-1.577h-3.954v-7.15zm16.834 0v8.726h5.749v-1.577h-3.953v-7.15zm16.833 0v8.726h5.954v-1.577h-4.158v-1.258h3.504v-1.54h-3.504v-2.772h3.979v-1.58zm23.7 8.726h-2.08l-1.437-2.206a3.532 3.532 0 0 1-.513.038h-.616v2.168h-1.797V105.3h2.413c2.439 0 3.9 1.17 3.9 3.3 0 1.36-.602 2.22-1.68 2.707l1.81 2.72zm-4.081-3.734c1.463 0 2.104-.462 2.104-1.694s-.667-1.72-2.104-1.72h-.565v3.414h.565zm17.374.962l-3.311-5.955h1.988l1.54 2.812c.334.616.706 1.655.706 1.655s.346-1.026.68-1.655l1.476-2.812h1.835l-3.106 5.827v2.9h-1.809v-2.772zM92.664 28l.103.392v5.643l-.103.401h2.413l.148-.904-.418.093H93.66l-.093-.093v-1.825l.093-.093h.317l.4.102v-1.005l-.4.102h-.317l-.093-.093v-1.825l.093-.094h1.146l.418.094-.148-.895zm9.906 0l-.409.401v2.822l.409.4h1.108l.093.093v1.826l-.093.093h-.614l-.093-.093v-.317l.102-.39h-1.005l.093.39v.81l.409.401h1.611l.401-.4v-2.813l-.401-.4h-1.117l-.093-.094v-1.825l.093-.094h.614l.093.094v.316l-.093.392h1.006l-.102-.392v-.819l-.401-.4zm9.087 0l-.149.904.42-.094h.53l.094.094v5.14l-.104.392h1.006l-.102-.392v-5.14l.093-.094h.523l.418.094-.15-.904zm10 0l.084.363-.95 5.524-.187.55h1.006l-.065-.27.206-1.239.11-.102h.7l.111.111.215 1.23-.066.27h1.005l-.194-.56-.96-5.514.085-.363h-1.1zm.251 3.95l.223-1.304.076-.717.075.717.223 1.322-.084.047h-.429l-.084-.066zM130.67 28l.102.392v5.643l-.102.401h2.115l.399-.4v-2.422l-.411-.4.41-.4V28.4l-.398-.4h-2.115zm.913 2.72v-1.825l.09-.094h.617l.094.094v1.825l-.094.093h-.616l-.091-.093zm0 2.812v-1.825l.09-.093h.617l.094.093v1.825l-.094.093h-.616l-.091-.093zM140.23 28l.104.401v5.643l-.103.392h2.412l.15-.894-.422.093h-1.135l-.093-.093v-5.14l.093-.402zm9.45 0l.103.401v5.643l-.103.392h1.006l-.102-.392v-5.643l.102-.4zm8.538 0l-.41.401v2.822l.41.4h1.108l.094.093v1.826l-.094.093h-.615l-.092-.093v-.317l.102-.39h-1.005l.093.39v.81l.409.401h1.61l.402-.4v-2.813l-.401-.4h-1.118l-.092-.094v-1.825l.092-.094h.615l.094.094v.316l-.094.392h1.006l-.102-.392v-.819l-.401-.4zm10.754 0l.093.401v2.328l-.093.093h-.615l-.092-.093v-2.328l.102-.4h-1.006l.102.4v5.643l-.102.392h1.006l-.102-.392v-2.328l.092-.093h.615l.093.093v2.328l-.093.392h1.006l-.102-.392v-5.643l.102-.4zm8.08 0l.104.392v5.643l-.104.401h2.412l.15-.904-.42.093h-1.145l-.093-.093v-1.825l.093-.093h.316l.401.102v-1.005l-.4.102h-.317l-.093-.093v-1.825l.093-.094h1.144l.42.094-.149-.895zm9.449 0l.094.392v5.643l-.094.401h2.115l.401-.4V28.4l-.4-.4H186.5zm.904 5.532v-4.637l.093-.094h.615l.094.094v4.637l-.094.093h-.615l-.093-.093zM207.452 28l-1.035 3.083L205.375 28h-.905l.103.401v5.643l-.103.392h1.007l-.102-.392v-3.697l.839 2.46h.409l.829-2.46v3.697l-.103.392h1.007l-.103-.392v-5.643l.103-.4zm10.957 0l-1.034 3.083L216.331 28h-.902l.104.401v5.643l-.104.392h1.007l-.105-.392v-3.697l.84 2.46h.409l.829-2.46v3.697l-.102.392h1.006l-.102-.392v-5.643l.102-.4zm9.598 0l.103.29-.4 1.647-.037.428-.037-.428-.401-1.647.093-.29h-1.174l.204.308.766 2.905-.773 2.915-.197.308h1.174l-.102-.279.41-1.668.037-.427.037.427.4 1.668-.103.28h1.184l-.204-.318-.774-2.906.774-2.897.204-.316zm9.823 0l.065.27-.52 3.623-.047.512-.047-.512-.54-3.623.066-.27h-1.006l.185.56.867 5.44-.075.436h1.1l-.074-.437.845-5.45.187-.549zm7.849 0l.101.401v5.643l-.101.392h1.005l-.102-.392v-5.643l.102-.4zm74.232 82.853l.66-.382c.173.284.398.492.798.492.336 0 .551-.168.551-.399 0-.278-.22-.376-.59-.539l-.204-.087c-.584-.248-.972-.562-.972-1.22 0-.609.463-1.072 1.187-1.072.515 0 .885.179 1.152.648l-.63.405c-.14-.248-.29-.347-.522-.347-.237 0-.388.151-.388.347 0 .244.151.341.498.493l.202.086c.688.296 1.077.597 1.077 1.274 0 .73-.573 1.13-1.343 1.13-.753 0-1.239-.36-1.476-.829"/><g transform="translate(324 107.142)"><mask id="d" fill="#fff"><use xlink:href="#c"/></mask><path d="M.517.51h.064l1.94 2.13L4.43.51h.07v3.978h-.782V3.01c0-.267.029-.69.029-.69s-.238.349-.423.557l-.782.874H2.47l-.782-.874c-.185-.208-.423-.556-.423-.556s.03.422.03.689v1.477H.517V.51z" fill="#B67429" mask="url(#d)"/></g></g></svg>