<svg width="60" height="60" viewBox="0 0 60 60" xmlns="http://www.w3.org/2000/svg" xmlns:xlink="http://www.w3.org/1999/xlink"><title>mark</title><defs><path id="a" d="M2.267 3H.735V.807h1.532V3z"/><path id="c" d="M2.401 2.971V.811H.236v2.16h2.165z"/></defs><g fill="none" fill-rule="evenodd"><path fill="#B67429" d="M12 10l.568 2.48v34.978L12 49.883h5.578l-.57-2.425V33.032l.515-.58h4.379v-4.961h-4.379l-.515-.58v-14.43l.57-2.481zm29.494 0l.517 2.48v14.432l-.517.579H27.956v4.962h13.538l.517.579v14.426l-.517 2.425h5.578l-.567-2.425V12.48l.567-2.48z"/><path fill="#B67429" d="M32.787 33.87v7.373l-.408.452h-5.276l-.407-.452V18.596l.407-.457h5.276l.408.457v7.5h3.535v-9.911l-1.746-1.954H22.75l.408 1.91v27.557l-.408 1.954h11.827l1.746-1.954V33.87z"/><g transform="translate(49 46.883)"><mask id="b" fill="#fff"><use xlink:href="#a"/></mask><path d="M.735 2.55l.36-.207c.093.153.216.266.432.266.183 0 .298-.09.298-.216 0-.15-.117-.205-.32-.293l-.108-.047c-.319-.135-.529-.305-.529-.664 0-.33.252-.582.644-.582.28 0 .48.098.627.353l-.343.22c-.076-.135-.159-.189-.284-.189-.129 0-.21.082-.21.19 0 .131.081.184.27.266l.11.047c.374.161.585.325.585.692 0 .396-.31.614-.73.614-.409 0-.673-.196-.802-.45" fill="#B67429" mask="url(#b)"/></g><g transform="translate(52 46.883)"><mask id="d" fill="#fff"><use xlink:href="#c"/></mask><path d="M.236.811h.035l1.053 1.157L2.364.811H2.4v2.16h-.425v-.8c0-.146.016-.376.016-.376s-.128.188-.229.302l-.424.475H1.3l-.425-.475c-.103-.114-.23-.302-.23-.302s.015.23.015.375v.801H.236V.811z" fill="#B67429" mask="url(#d)"/></g></g></svg>