<svg width="60" height="30" viewBox="0 0 60 30" xmlns="http://www.w3.org/2000/svg" xmlns:xlink="http://www.w3.org/1999/xlink"><title>social-media</title><defs><path id="a" d="M16.09.223H0v5.34h16.09V.223z"/><path id="c" d="M0 10V.109h16.09v9.89H0z"/><path id="e" d="M4.013 17.5H0V0h8.026v17.5H4.013z"/></defs><g fill="none" fill-rule="evenodd"><path d="M46.713 15.571c0-.908-.712-1.646-1.586-1.646-.874 0-1.585.738-1.585 1.646 0 .908.711 1.647 1.585 1.647s1.586-.739 1.586-1.647" fill="#B67429"/><g transform="translate(37 6.777)"><mask id="b" fill="#fff"><use xlink:href="#a"/></mask><path d="M8.128 4.827a3.7 3.7 0 0 1 2.21.736h5.753V4.399c0-2.304-1.804-4.176-4.021-4.176H4.022C1.804.223 0 2.095 0 4.399v1.163h5.918a3.7 3.7 0 0 1 2.21-.735zm3.296-2.067c0-.254.2-.463.447-.463h1.38c.246 0 .447.208.447.463v1.434a.457.457 0 0 1-.446.465H11.87a.457.457 0 0 1-.447-.465V2.761z" fill="#B67429" mask="url(#b)"/></g><g transform="translate(37 13.777)"><mask id="d" fill="#fff"><use xlink:href="#c"/></mask><path d="M11.948 1.794c0 2.187-1.714 3.967-3.82 3.967s-3.82-1.78-3.82-3.967c0-.602.13-1.173.363-1.685H0v5.716C0 8.127 1.804 10 4.022 10h8.048c2.217 0 4.02-1.873 4.02-4.175V.109h-4.505c.232.512.363 1.083.363 1.685" fill="#B67429" mask="url(#d)"/></g><g transform="translate(11 6)"><mask id="f" fill="#fff"><use xlink:href="#e"/></mask><path d="M2.049 17.5V9.289h-2.05V6.332h2.05V3.807C2.049 1.823 3.259 0 6.048 0c1.129 0 1.964.115 1.964.115l-.066 2.761s-.851-.009-1.78-.009c-1.007 0-1.168.491-1.168 1.306v2.159h3.028l-.132 2.957H4.998V17.5h-2.95z" fill="#B67429" mask="url(#f)"/></g></g></svg>