<?xml version="1.0" encoding="UTF-8" standalone="no"?>
<svg width="340px" height="140px" viewBox="0 0 340 140" version="1.1" xmlns="http://www.w3.org/2000/svg" xmlns:xlink="http://www.w3.org/1999/xlink">
    <!-- Generator: Sketch 42 (36781) - http://www.bohemiancoding.com/sketch -->
    <title>logo</title>
    <desc>Created with Sketch.</desc>
    <defs>
        <polygon id="path-1" points="6.8438 9 0.5928 9 0.5928 0.0551 6.8438 0.0551"></polygon>
        <polygon id="path-3" points="4.5 4.4876 4.5 0.5096 0.5175 0.5096 0.5175 4.4876 4.5 4.4876"></polygon>
    </defs>
    <g id="Page-1" stroke="none" stroke-width="1" fill="none" fill-rule="evenodd">
        <g id="logo">
            <g id="Page-1" transform="translate(24.000000, 28.000000)">
                <g id="Group-11" transform="translate(52.000000, 30.142100)" fill="#B67429">
                    <path d="M111.743,8.6013 C109.703,13.7423 107.747,18.6663 105.667,23.9073 C102.533,16.2103 99.5,8.7633 96.414,1.1833 L99.849,1.1893 C101.561,5.4003 103.474,10.3053 105.163,14.5263 C105.29,14.8423 105.425,15.1553 105.676,15.7583 C107.733,10.6493 109.7,5.7693 111.744,0.6923 C113.795,5.7863 115.766,10.6843 117.821,15.7923 C119.801,10.8323 121.707,6.0533 123.634,1.2293 L127.054,1.2293 C123.995,8.7483 120.951,16.2283 117.826,23.9123 C115.773,18.7453 113.798,13.7743 111.743,8.6013" id="Fill-1"></path>
                    <path d="M12.1978,23.6253 C5.9178,23.6163 0.8828,18.6183 0.8118,12.3233 C0.7428,6.1093 5.9268,0.9533 12.2398,0.9593 C18.4578,0.9643 23.6158,6.1313 23.5738,12.3143 C23.5318,18.5803 18.4488,23.6353 12.1978,23.6253 M4.0268,12.2673 C4.0248,16.8963 7.5988,20.4903 12.2118,20.4953 C16.7738,20.4993 20.4068,16.8173 20.3668,12.2263 C20.3298,7.6863 16.6858,4.0673 12.1748,4.0873 C7.6288,4.1083 4.0288,7.7233 4.0268,12.2673" id="Fill-3"></path>
                    <path d="M145.2462,23.6253 C138.9752,23.6033 133.9042,18.5453 133.8872,12.2943 C133.8722,6.0033 139.0462,0.9313 145.4502,0.9613 C151.5762,0.9893 156.7202,6.2173 156.6502,12.3423 C156.5792,18.6233 151.5012,23.6463 145.2462,23.6253 M153.4432,12.3643 C153.5272,7.8753 149.9022,4.1483 145.3922,4.0873 C140.8502,4.0283 137.1782,7.5913 137.1092,12.1273 C137.0382,16.7253 140.5352,20.4093 145.0472,20.4923 C149.7112,20.5783 153.3572,17.0493 153.4432,12.3643" id="Fill-5"></path>
                    <path d="M176.696,23.6253 C170.42,23.6113 165.373,18.5933 165.319,12.3143 C165.264,6.0473 170.463,0.9343 176.86,0.9613 C182.994,0.9853 188.131,6.1873 188.081,12.3233 C188.029,18.5933 182.947,23.6393 176.696,23.6253 M168.533,12.2673 C168.533,16.8983 172.108,20.4903 176.72,20.4953 C181.282,20.4993 184.915,16.8143 184.874,12.2243 C184.835,7.6843 181.191,4.0663 176.679,4.0873 C172.136,4.1083 168.535,7.7243 168.533,12.2673" id="Fill-7"></path>
                    <path d="M196.3578,23.378 L196.3578,1.168 C199.8768,1.334 203.3988,0.765 206.8518,1.754 C212.5678,3.39 214.8188,8.794 214.1808,13.804 C213.6128,18.269 211.2758,21.407 206.8878,22.799 C205.9448,23.1 204.9388,23.322 203.9528,23.352 C201.4668,23.429 198.9768,23.378 196.3578,23.378 L196.3578,23.378 Z M199.5648,20.257 C200.9368,20.257 202.2118,20.268 203.4868,20.255 C207.0338,20.221 209.6448,18.31 210.7148,14.976 C211.8118,11.557 210.6618,7.698 208.0098,5.737 C205.4278,3.825 202.4828,4.462 199.5648,4.353 L199.5648,20.257 Z" id="Fill-9"></path>
                </g>
                <polygon id="Fill-12" fill="#B67429" points="43.7531 53.4939 40.7081 53.4939 40.7081 44.0789 30.1131 44.0789 30.1131 53.4699 26.9731 53.4699 26.9731 31.3789 30.0781 31.3789 30.0781 40.8129 40.6321 40.8129 40.6321 31.4089 43.7531 31.4089"></polygon>
                <polygon id="Fill-13" fill="#B67429" points="83.7802 31.3486 86.8862 31.3486 86.8862 50.3936 95.8202 50.3936 95.8202 53.4586 83.7802 53.4586"></polygon>
                <polygon id="Fill-14" fill="#B67429" points="105.3851 53.464 105.3851 31.377 108.5281 31.377 108.5281 50.365 117.4211 50.365 117.4211 53.464"></polygon>
                <path d="M141.1647,31.3271 L141.0967,31.3271 C141.0967,31.3251 141.0967,31.3241 141.0977,31.3231 C140.1877,31.3231 139.4217,31.2781 138.6867,31.3271 L137.6707,31.3271 L137.3217,31.9011 C137.2867,31.9421 137.2427,31.9821 137.2157,32.0251 C136.4277,33.2341 135.7257,34.5001 134.9977,35.7491 L131.6137,41.3471 L128.9057,36.8671 C128.3227,35.8651 127.7407,34.8631 127.1547,33.8641 C126.6647,33.0261 126.3267,32.4501 125.9987,32.0591 L125.5337,31.2901 L122.0397,31.2901 L128.4407,41.8791 C128.9617,42.8241 129.3567,43.5951 129.8797,44.7121 L129.8797,53.4841 L130.0287,53.4841 L133.1907,53.4841 L133.2727,53.4841 L133.2727,44.7901 C133.4847,44.1461 133.4847,44.1461 133.7807,43.6371 C135.0567,41.4611 136.3537,39.2981 137.6527,37.1361 L141.1647,31.3271 Z" id="Fill-15" fill="#B67429"></path>
                <polygon id="Fill-17" fill="#B67429" points="291.3492 80.6196 242.8842 80.6196 242.8842 78.7086 289.4382 78.7086 289.4382 5.4956 242.8842 5.4956 242.8842 3.5836 291.3492 3.5836"></polygon>
                <polygon id="Fill-18" fill="#B67429" points="287.4105 83.5213 242.6725 83.5213 242.6725 82.5653 286.4545 82.5653 286.4545 1.6383 242.8915 1.6383 242.8915 0.6823 287.4105 0.6823"></polygon>
                <polygon id="Fill-19" fill="#B67429" points="0 3.5851 0 80.6211 48.464 80.6211 48.464 78.7091 1.912 78.7091 1.912 5.4971 48.464 5.4971 48.464 3.5851"></polygon>
                <polygon id="Fill-20" fill="#B67429" points="48.457 83.5222 3.939 83.5222 3.939 0.6842 48.675 0.6842 48.675 1.6392 4.894 1.6392 4.894 82.5662 48.457 82.5662"></polygon>
                <path d="M68.6097,77.2996 L71.2917,77.2996 C73.9737,77.2996 75.8857,79.0846 75.8857,81.6636 C75.8857,84.2426 73.9867,86.0266 71.2917,86.0266 L68.6097,86.0266 L68.6097,77.2996 Z M71.2017,84.4476 C73.1397,84.4476 74.0247,83.2936 74.0247,81.6636 C74.0247,80.0336 73.1397,78.8786 71.2017,78.8786 L70.4067,78.8786 L70.4067,84.4476 L71.2017,84.4476 Z" id="Fill-21" fill="#B67429"></path>
                <polygon id="Fill-23" fill="#B67429" points="87.073 86.0261 88.87 86.0261 88.87 77.3001 87.073 77.3001"></polygon>
                <g id="Group-26" transform="translate(99.000000, 77.142100)">
                    <mask id="mask-2" fill="white">
                        <use xlink:href="#path-1"></use>
                    </mask>
                    <g id="Clip-25"></g>
                    <path d="M0.5928,7.1651 L2.0568,6.3171 C2.4408,6.9471 2.9418,7.4091 3.8278,7.4091 C4.5718,7.4091 5.0468,7.0361 5.0468,6.5231 C5.0468,5.9071 4.5588,5.6891 3.7368,5.3301 L3.2878,5.1381 C1.9918,4.5851 1.1318,3.8931 1.1318,2.4291 C1.1318,1.0811 2.1588,0.0551 3.7638,0.0551 C4.9048,0.0551 5.7258,0.4531 6.3168,1.4921 L4.9178,2.3911 C4.6098,1.8391 4.2768,1.6211 3.7638,1.6211 C3.2368,1.6211 2.9038,1.9551 2.9038,2.3911 C2.9038,2.9291 3.2368,3.1481 4.0068,3.4821 L4.4558,3.6741 C5.9838,4.3291 6.8438,4.9961 6.8438,6.4981 C6.8438,8.1151 5.5728,9.0001 3.8658,9.0001 C2.1968,9.0001 1.1188,8.2051 0.5928,7.1651" id="Fill-24" fill="#B67429" mask="url(#mask-2)"></path>
                </g>
                <polygon id="Fill-27" fill="#B67429" points="116.1189 77.2996 116.1189 78.8786 118.6079 78.8786 118.6079 86.0256 120.4049 86.0256 120.4049 78.8786 122.8949 78.8786 122.8949 77.2996"></polygon>
                <polygon id="Fill-28" fill="#B67429" points="133.888 86.0261 135.684 86.0261 135.684 77.3001 133.888 77.3001"></polygon>
                <polygon id="Fill-29" fill="#B67429" points="147.1653 77.2996 147.1653 86.0256 152.9143 86.0256 152.9143 84.4486 148.9613 84.4486 148.9613 77.2996"></polygon>
                <polygon id="Fill-30" fill="#B67429" points="163.9989 77.2996 163.9989 86.0256 169.7479 86.0256 169.7479 84.4486 165.7949 84.4486 165.7949 77.2996"></polygon>
                <polygon id="Fill-31" fill="#B67429" points="180.8316 77.2996 180.8316 86.0256 186.7856 86.0256 186.7856 84.4486 182.6276 84.4486 182.6276 83.1906 186.1316 83.1906 186.1316 81.6516 182.6276 81.6516 182.6276 78.8786 186.6066 78.8786 186.6066 77.2996"></polygon>
                <g id="Group-36" transform="translate(198.000000, 77.142100)" fill="#B67429">
                    <path d="M6.5319,8.8843 L4.4529,8.8843 L3.0149,6.6783 C2.8489,6.7033 2.6689,6.7163 2.5019,6.7163 L1.8859,6.7163 L1.8859,8.8843 L0.0889,8.8843 L0.0889,0.1573 L2.5019,0.1573 C4.9409,0.1573 6.4029,1.3263 6.4029,3.4563 C6.4029,4.8163 5.7999,5.6763 4.7219,6.1643 L6.5319,8.8843 Z M2.4509,5.1503 C3.9139,5.1503 4.5549,4.6883 4.5549,3.4563 C4.5549,2.2243 3.8879,1.7363 2.4509,1.7363 L1.8859,1.7363 L1.8859,5.1503 L2.4509,5.1503 Z" id="Fill-32"></path>
                    <path d="M19.8245,6.1122 L16.5135,0.1572 L18.5025,0.1572 L20.0425,2.9692 C20.3765,3.5852 20.7485,4.6242 20.7485,4.6242 C20.7485,4.6242 21.0945,3.5982 21.4285,2.9692 L22.9045,0.1572 L24.7395,0.1572 L21.6335,5.9842 L21.6335,8.8842 L19.8245,8.8842 L19.8245,6.1122 Z" id="Fill-34"></path>
                </g>
                <polygon id="Fill-37" fill="#B67429" points="68.6637 0.0004 68.7667 0.3924 68.7667 6.0354 68.6637 6.4364 71.0767 6.4364 71.2247 5.5324 70.8067 5.6254 69.6607 5.6254 69.5677 5.5324 69.5677 3.7074 69.6607 3.6144 69.9777 3.6144 70.3777 3.7164 70.3777 2.7114 69.9777 2.8134 69.6607 2.8134 69.5677 2.7204 69.5677 0.8954 69.6607 0.8014 70.8067 0.8014 71.2247 0.8954 71.0767 0.0004"></polygon>
                <polygon id="Fill-38" fill="#B67429" points="78.57 0.0004 78.161 0.4014 78.161 3.2234 78.57 3.6234 79.678 3.6234 79.771 3.7164 79.771 5.5424 79.678 5.6354 79.064 5.6354 78.971 5.5424 78.971 5.2254 79.073 4.8344 78.068 4.8344 78.161 5.2254 78.161 6.0354 78.57 6.4364 80.181 6.4364 80.582 6.0354 80.582 3.2234 80.181 2.8224 79.064 2.8224 78.971 2.7294 78.971 0.9044 79.064 0.8104 79.678 0.8104 79.771 0.9044 79.771 1.2204 79.678 1.6124 80.684 1.6124 80.582 1.2204 80.582 0.4014 80.181 0.0004"></polygon>
                <polygon id="Fill-39" fill="#B67429" points="87.6573 0.0004 87.5083 0.9044 87.9283 0.8104 88.4583 0.8104 88.5523 0.9044 88.5523 6.0444 88.4483 6.4364 89.4543 6.4364 89.3523 6.0444 89.3523 0.9044 89.4453 0.8104 89.9683 0.8104 90.3863 0.9044 90.2363 0.0004"></polygon>
                <path d="M97.6572,0.0004 L97.7412,0.3634 L96.7912,5.8874 L96.6042,6.4364 L97.6102,6.4364 L97.5452,6.1664 L97.7512,4.9284 L97.8612,4.8264 L98.5612,4.8264 L98.6722,4.9374 L98.8872,6.1664 L98.8212,6.4364 L99.8262,6.4364 L99.6322,5.8774 L98.6722,0.3634 L98.7572,0.0004 L97.6572,0.0004 Z M97.9082,3.9494 L98.1312,2.6464 L98.2072,1.9294 L98.2822,2.6464 L98.5052,3.9684 L98.4212,4.0154 L97.9922,4.0154 L97.9082,3.9494 Z" id="Fill-40" fill="#B67429"></path>
                <path d="M106.6698,0.0004 L106.7718,0.3924 L106.7718,6.0354 L106.6698,6.4364 L108.7848,6.4364 L109.1838,6.0354 L109.1838,3.6144 L108.7728,3.2134 L109.1838,2.8134 L109.1838,0.4014 L108.7848,0.0004 L106.6698,0.0004 Z M107.5828,2.7204 L107.5828,0.8954 L107.6738,0.8014 L108.2898,0.8014 L108.3838,0.8954 L108.3838,2.7204 L108.2898,2.8134 L107.6738,2.8134 L107.5828,2.7204 Z M107.5828,5.5324 L107.5828,3.7074 L107.6738,3.6144 L108.2898,3.6144 L108.3838,3.7074 L108.3838,5.5324 L108.2898,5.6254 L107.6738,5.6254 L107.5828,5.5324 Z" id="Fill-41" fill="#B67429"></path>
                <polygon id="Fill-42" fill="#B67429" points="116.2305 0.0004 116.3335 0.4014 116.3335 6.0444 116.2305 6.4364 118.6425 6.4364 118.7925 5.5424 118.3715 5.6354 117.2365 5.6354 117.1435 5.5424 117.1435 0.4014 117.2365 0.0004"></polygon>
                <polygon id="Fill-43" fill="#B67429" points="125.6796 0.0004 125.7826 0.4014 125.7826 6.0444 125.6796 6.4364 126.6856 6.4364 126.5836 6.0444 126.5836 0.4014 126.6856 0.0004"></polygon>
                <polygon id="Fill-44" fill="#B67429" points="134.2179 0.0004 133.8089 0.4014 133.8089 3.2234 134.2179 3.6234 135.3259 3.6234 135.4199 3.7164 135.4199 5.5424 135.3259 5.6354 134.7109 5.6354 134.6189 5.5424 134.6189 5.2254 134.7209 4.8344 133.7159 4.8344 133.8089 5.2254 133.8089 6.0354 134.2179 6.4364 135.8289 6.4364 136.2299 6.0354 136.2299 3.2234 135.8289 2.8224 134.7109 2.8224 134.6189 2.7294 134.6189 0.9044 134.7109 0.8104 135.3259 0.8104 135.4199 0.9044 135.4199 1.2204 135.3259 1.6124 136.3319 1.6124 136.2299 1.2204 136.2299 0.4014 135.8289 0.0004"></polygon>
                <polygon id="Fill-45" fill="#B67429" points="144.972 0.0004 145.065 0.4014 145.065 2.7294 144.972 2.8224 144.357 2.8224 144.265 2.7294 144.265 0.4014 144.367 0.0004 143.361 0.0004 143.463 0.4014 143.463 6.0444 143.361 6.4364 144.367 6.4364 144.265 6.0444 144.265 3.7164 144.357 3.6234 144.972 3.6234 145.065 3.7164 145.065 6.0444 144.972 6.4364 145.978 6.4364 145.876 6.0444 145.876 0.4014 145.978 0.0004"></polygon>
                <polygon id="Fill-46" fill="#B67429" points="153.0522 0.0004 153.1562 0.3924 153.1562 6.0354 153.0522 6.4364 155.4642 6.4364 155.6132 5.5324 155.1932 5.6254 154.0492 5.6254 153.9562 5.5324 153.9562 3.7074 154.0492 3.6144 154.3652 3.6144 154.7662 3.7164 154.7662 2.7114 154.3652 2.8134 154.0492 2.8134 153.9562 2.7204 153.9562 0.8954 154.0492 0.8014 155.1932 0.8014 155.6132 0.8954 155.4642 0.0004"></polygon>
                <path d="M162.5013,0.0004 L162.5953,0.3924 L162.5953,6.0354 L162.5013,6.4364 L164.6163,6.4364 L165.0173,6.0354 L165.0173,0.4014 L164.6163,0.0004 L162.5013,0.0004 Z M163.4053,5.5324 L163.4053,0.8954 L163.4983,0.8014 L164.1133,0.8014 L164.2073,0.8954 L164.2073,5.5324 L164.1133,5.6254 L163.4983,5.6254 L163.4053,5.5324 Z" id="Fill-47" fill="#B67429"></path>
                <polygon id="Fill-48" fill="#B67429" points="183.4515 0.0004 182.4175 3.0834 181.3745 0.0004 180.4705 0.0004 180.5735 0.4014 180.5735 6.0444 180.4705 6.4364 181.4775 6.4364 181.3745 6.0444 181.3745 2.3474 182.2135 4.8064 182.6225 4.8064 183.4515 2.3474 183.4515 6.0444 183.3485 6.4364 184.3555 6.4364 184.2525 6.0444 184.2525 0.4014 184.3555 0.0004"></polygon>
                <polygon id="Fill-49" fill="#B67429" points="194.409 0.0004 193.375 3.0834 192.331 0.0004 191.429 0.0004 191.533 0.4014 191.533 6.0444 191.429 6.4364 192.436 6.4364 192.331 6.0444 192.331 2.3474 193.171 4.8064 193.58 4.8064 194.409 2.3474 194.409 6.0444 194.307 6.4364 195.313 6.4364 195.211 6.0444 195.211 0.4014 195.313 0.0004"></polygon>
                <polygon id="Fill-50" fill="#B67429" points="204.0075 0.0004 204.1105 0.2904 203.7105 1.9374 203.6735 2.3654 203.6355 1.9374 203.2345 0.2904 203.3285 0.0004 202.1535 0.0004 202.3585 0.3084 203.1235 3.2134 202.3505 6.1284 202.1535 6.4364 203.3285 6.4364 203.2265 6.1574 203.6355 4.4894 203.6735 4.0624 203.7105 4.4894 204.1105 6.1574 204.0075 6.4364 205.1915 6.4364 204.9865 6.1194 204.2125 3.2134 204.9865 0.3164 205.1915 0.0004"></polygon>
                <polygon id="Fill-51" fill="#B67429" points="213.8301 0.0004 213.8951 0.2704 213.3751 3.8934 213.3281 4.4054 213.2811 3.8934 212.7401 0.2704 212.8071 0.0004 211.8011 0.0004 211.9861 0.5594 212.8531 5.9994 212.7781 6.4364 213.8771 6.4364 213.8041 5.9994 214.6491 0.5494 214.8361 0.0004"></polygon>
                <polygon id="Fill-52" fill="#B67429" points="221.679 0.0004 221.78 0.4014 221.78 6.0444 221.679 6.4364 222.684 6.4364 222.582 6.0444 222.582 0.4014 222.684 0.0004"></polygon>
                <g id="Group-58" transform="translate(295.000000, 79.142100)">
                    <path d="M0.9114,3.7109 L1.5704,3.3289 C1.7444,3.6129 1.9694,3.8209 2.3694,3.8209 C2.7054,3.8209 2.9204,3.6529 2.9204,3.4219 C2.9204,3.1439 2.6994,3.0459 2.3294,2.8829 L2.1264,2.7959 C1.5424,2.5479 1.1544,2.2339 1.1544,1.5759 C1.1544,0.9669 1.6174,0.5039 2.3414,0.5039 C2.8564,0.5039 3.2264,0.6829 3.4934,1.1519 L2.8624,1.5569 C2.7234,1.3089 2.5724,1.2099 2.3414,1.2099 C2.1044,1.2099 1.9534,1.3609 1.9534,1.5569 C1.9534,1.8009 2.1044,1.8979 2.4514,2.0499 L2.6534,2.1359 C3.3414,2.4319 3.7304,2.7329 3.7304,3.4099 C3.7304,4.1399 3.1574,4.5399 2.3874,4.5399 C1.6344,4.5399 1.1484,4.1799 0.9114,3.7109" id="Fill-53" fill="#B67429"></path>
                    <g id="Group-57" transform="translate(5.000000, 0.000000)">
                        <mask id="mask-4" fill="white">
                            <use xlink:href="#path-3"></use>
                        </mask>
                        <g id="Clip-56"></g>
                        <path d="M0.5175,0.5096 L0.5805,0.5096 L2.5205,2.6396 L4.4305,0.5096 L4.5005,0.5096 L4.5005,4.4876 L3.7195,4.4876 L3.7195,3.0106 C3.7195,2.7436 3.7475,2.3216 3.7475,2.3216 C3.7475,2.3216 3.5105,2.6696 3.3255,2.8776 L2.5435,3.7516 L2.4695,3.7516 L1.6865,2.8776 C1.5025,2.6696 1.2645,2.3216 1.2645,2.3216 C1.2645,2.3216 1.2935,2.7436 1.2935,3.0106 L1.2935,4.4876 L0.5175,4.4876 L0.5175,0.5096 Z" id="Fill-55" fill="#B67429" mask="url(#mask-4)"></path>
                    </g>
                </g>
            </g>
        </g>
    </g>
</svg>