<?xml version="1.0" encoding="UTF-8" standalone="no"?>
<svg width="60px" height="60px" viewBox="0 0 60 60" version="1.1" xmlns="http://www.w3.org/2000/svg" xmlns:xlink="http://www.w3.org/1999/xlink">
    <!-- Generator: Sketch 42 (36781) - http://www.bohemiancoding.com/sketch -->
    <title>mark</title>
    <desc>Created with Sketch.</desc>
    <defs>
        <polygon id="path-1" points="2.2672 3 0.7352 3 0.7352 0.8072 2.2672 0.8072 2.2672 3"></polygon>
        <polygon id="path-3" points="2.401 2.9711 2.401 0.8111 0.2362 0.8111 0.2362 2.9711 2.401 2.9711"></polygon>
    </defs>
    <g id="Page-1" stroke="none" stroke-width="1" fill="none" fill-rule="evenodd">
        <g id="mark">
            <g id="art" transform="translate(12.000000, 10.000000)">
                <polygon id="Fill-1" fill="#B67429" points="0 -0.0001 0.568 2.4809 0.568 37.4579 0 39.8829 5.578 39.8829 5.008 37.4579 5.008 23.0319 5.523 22.4529 9.902 22.4529 9.902 17.4909 5.523 17.4909 5.008 16.9119 5.008 2.4809 5.578 -0.0001"></polygon>
                <polygon id="Fill-2" fill="#B67429" points="29.4939 -0.0001 30.0109 2.4809 30.0109 16.9119 29.4939 17.4909 15.9559 17.4909 15.9559 22.4529 29.4939 22.4529 30.0109 23.0319 30.0109 37.4579 29.4939 39.8829 35.0719 39.8829 34.5049 37.4579 34.5049 2.4809 35.0719 -0.0001"></polygon>
                <polygon id="Fill-3" fill="#B67429" points="20.7874 23.8696 20.7874 31.2426 20.3794 31.6946 15.1034 31.6946 14.6964 31.2426 14.6964 8.5956 15.1034 8.1386 20.3794 8.1386 20.7874 8.5956 20.7874 16.0956 24.3224 16.0956 24.3224 6.1846 22.5764 4.2306 10.7494 4.2306 11.1574 6.1406 11.1574 33.6976 10.7494 35.6516 22.5764 35.6516 24.3224 33.6976 24.3224 23.8696"></polygon>
                <g id="Group-10" transform="translate(37.000000, 36.882500)">
                    <g id="Group-6">
                        <mask id="mask-2" fill="white">
                            <use xlink:href="#path-1"></use>
                        </mask>
                        <g id="Clip-5"></g>
                        <path d="M0.7352,2.5502 L1.0942,2.3432 C1.1882,2.4962 1.3112,2.6092 1.5272,2.6092 C1.7102,2.6092 1.8252,2.5192 1.8252,2.3932 C1.8252,2.2422 1.7082,2.1882 1.5052,2.1002 L1.3972,2.0532 C1.0782,1.9182 0.8682,1.7482 0.8682,1.3892 C0.8682,1.0592 1.1202,0.8072 1.5122,0.8072 C1.7922,0.8072 1.9922,0.9052 2.1392,1.1602 L1.7962,1.3802 C1.7202,1.2452 1.6372,1.1912 1.5122,1.1912 C1.3832,1.1912 1.3022,1.2732 1.3022,1.3802 C1.3022,1.5122 1.3832,1.5652 1.5722,1.6472 L1.6812,1.6942 C2.0562,1.8552 2.2672,2.0192 2.2672,2.3862 C2.2672,2.7822 1.9562,3.0002 1.5362,3.0002 C1.1282,3.0002 0.8642,2.8042 0.7352,2.5502" id="Fill-4" fill="#B67429" mask="url(#mask-2)"></path>
                    </g>
                    <g id="Group-9" transform="translate(3.000000, 0.000000)">
                        <mask id="mask-4" fill="white">
                            <use xlink:href="#path-3"></use>
                        </mask>
                        <g id="Clip-8"></g>
                        <path d="M0.2362,0.8111 L0.2712,0.8111 L1.3242,1.9681 L2.3632,0.8111 L2.4012,0.8111 L2.4012,2.9711 L1.9762,2.9711 L1.9762,2.1701 C1.9762,2.0251 1.9922,1.7951 1.9922,1.7951 C1.9922,1.7951 1.8642,1.9831 1.7632,2.0971 L1.3392,2.5721 L1.2982,2.5721 L0.8742,2.0971 C0.7712,1.9831 0.6432,1.7951 0.6432,1.7951 C0.6432,1.7951 0.6592,2.0251 0.6592,2.1701 L0.6592,2.9711 L0.2362,2.9711 L0.2362,0.8111 Z" id="Fill-7" fill="#B67429" mask="url(#mask-4)"></path>
                    </g>
                </g>
            </g>
        </g>
    </g>
</svg>