<?xml version="1.0" encoding="UTF-8" standalone="no"?>
<svg width="60px" height="30px" viewBox="0 0 60 30" version="1.1" xmlns="http://www.w3.org/2000/svg" xmlns:xlink="http://www.w3.org/1999/xlink">
    <!-- Generator: Sketch 42 (36781) - http://www.bohemiancoding.com/sketch -->
    <title>social-media</title>
    <desc>Created with Sketch.</desc>
    <defs>
        <polygon id="path-1" points="16.0907 0.223 0 0.223 0 5.5625 16.0907 5.5625 16.0907 0.223"></polygon>
        <polygon id="path-3" points="0 9.9998 0 0.1088 16.0906 0.1088 16.0906 9.9998 2.02664491e-16 9.9998"></polygon>
        <polygon id="path-5" points="4.0129 17.5 0 17.5 0 0 4.0129 0 8.0258 0 8.0258 17.5 4.0129 17.5"></polygon>
    </defs>
    <g id="Page-1" stroke="none" stroke-width="1" fill="none" fill-rule="evenodd">
        <g id="social-media">
            <g id="instagram" transform="translate(37.000000, 6.000000)">
                <path d="M9.7135,9.5712 C9.7135,8.6632 9.0015,7.9252 8.1275,7.9252 C7.2535,7.9252 6.5425,8.6632 6.5425,9.5712 C6.5425,10.4792 7.2535,11.2182 8.1275,11.2182 C9.0015,11.2182 9.7135,10.4792 9.7135,9.5712" id="Fill-1" fill="#B67429"></path>
                <g id="Group-5" transform="translate(0.000000, 0.777400)">
                    <mask id="mask-2" fill="white">
                        <use xlink:href="#path-1"></use>
                    </mask>
                    <g id="Clip-4"></g>
                    <path d="M8.1277,4.8275 C8.9517,4.8275 9.7137,5.1005 10.3387,5.5625 L13.3387,5.5625 L16.0907,5.5625 L16.0907,4.3985 C16.0907,2.0955 14.2867,0.2225 12.0697,0.2225 L4.0217,0.2225 C1.8037,0.2225 -0.0003,2.0955 -0.0003,4.3985 L-0.0003,5.5625 L5.9177,5.5625 C6.5417,5.1005 7.3047,4.8275 8.1277,4.8275 L8.1277,4.8275 Z M11.4237,2.7605 C11.4237,2.5055 11.6247,2.2965 11.8707,2.2965 L13.2517,2.2965 C13.4967,2.2965 13.6977,2.5055 13.6977,2.7605 L13.6977,4.1945 C13.6977,4.4495 13.4967,4.6585 13.2517,4.6585 L11.8707,4.6585 C11.6247,4.6585 11.4237,4.4495 11.4237,4.1945 L11.4237,2.7605 Z" id="Fill-3" fill="#B67429" mask="url(#mask-2)"></path>
                </g>
                <g id="Group-8" transform="translate(0.000000, 7.777400)">
                    <mask id="mask-4" fill="white">
                        <use xlink:href="#path-3"></use>
                    </mask>
                    <g id="Clip-7"></g>
                    <path d="M11.9476,1.7938 C11.9476,3.9808 10.2336,5.7608 8.1276,5.7608 C6.0216,5.7608 4.3086,3.9808 4.3086,1.7938 C4.3086,1.1918 4.4386,0.6208 4.6706,0.1088 L-0.0004,0.1088 L-0.0004,5.8248 C-0.0004,8.1268 1.8036,9.9998 4.0216,9.9998 L12.0696,9.9998 C14.2866,9.9998 16.0906,8.1268 16.0906,5.8248 L16.0906,0.1088 L11.5846,0.1088 C11.8166,0.6208 11.9476,1.1918 11.9476,1.7938" id="Fill-6" fill="#B67429" mask="url(#mask-4)"></path>
                </g>
            </g>
            <g id="facebook" transform="translate(11.000000, 6.000000)">
                <mask id="mask-6" fill="white">
                    <use xlink:href="#path-5"></use>
                </mask>
                <g id="Clip-2"></g>
                <path d="M2.0488,17.5 L2.0488,9.289 L-0.0002,9.289 L-0.0002,6.332 L2.0488,6.332 L2.0488,3.807 C2.0488,1.823 3.2588,0 6.0478,0 C7.1768,0 8.0118,0.115 8.0118,0.115 L7.9458,2.876 C7.9458,2.876 7.0948,2.867 6.1658,2.867 C5.1588,2.867 4.9978,3.358 4.9978,4.173 L4.9978,6.332 L8.0258,6.332 L7.8938,9.289 L4.9978,9.289 L4.9978,17.5 L2.0488,17.5 Z" id="Fill-1" fill="#B67429" mask="url(#mask-6)"></path>
            </g>
        </g>
    </g>
</svg>